<svg width="224" height="89" viewBox="0 0 224 89" fill="none" xmlns="http://www.w3.org/2000/svg">
<path d="M102.672 45.4561V37.7416L105.999 33.3332L112.958 45.4561H120.006L109.807 28.1755L118.43 16.7138H111.339L102.847 28.4841H102.672V16.7138H96.2378V45.4561H102.672ZM133.41 45.4561V16.7138H126.976V45.4561H133.41ZM152.723 45.9851C154.416 45.9851 155.933 45.7427 157.276 45.2578C158.618 44.7729 159.749 44.1263 160.668 43.3181C161.587 42.5099 162.287 41.5695 162.769 40.4968C163.25 39.4241 163.491 38.2853 163.491 37.0803C163.491 35.0525 162.988 33.4214 161.981 32.1871C160.974 30.9527 159.596 29.9829 157.845 29.2776L154.168 27.7787C153.555 27.5142 152.986 27.2718 152.461 27.0514C151.936 26.8309 151.476 26.5958 151.082 26.346C150.688 26.0962 150.382 25.817 150.163 25.5084C149.944 25.1999 149.835 24.8251 149.835 24.3843C149.835 23.5614 150.163 22.9222 150.819 22.4667C151.476 22.0112 152.359 21.7834 153.468 21.7834C154.606 21.7834 155.642 21.9818 156.575 22.3785C157.509 22.7753 158.443 23.341 159.377 24.0757L162.66 19.976C161.434 18.7416 160.011 17.8012 158.392 17.1546C156.772 16.5081 155.131 16.1848 153.468 16.1848C151.979 16.1848 150.615 16.4052 149.375 16.8461C148.135 17.2869 147.062 17.8967 146.158 18.6755C145.253 19.4543 144.553 20.3654 144.057 21.4087C143.561 22.452 143.313 23.5614 143.313 24.737C143.313 25.795 143.473 26.7428 143.794 27.5804C144.115 28.4179 144.545 29.1527 145.085 29.7845C145.625 30.4164 146.238 30.9674 146.924 31.4376C147.609 31.9079 148.317 32.2899 149.047 32.5838L152.767 34.1708C153.38 34.4353 153.942 34.6778 154.452 34.8982C154.963 35.1186 155.401 35.3537 155.766 35.6035C156.13 35.8533 156.408 36.1399 156.597 36.4631C156.787 36.7864 156.882 37.1685 156.882 37.6093C156.882 38.4616 156.553 39.1375 155.897 39.6371C155.24 40.1368 154.241 40.3866 152.899 40.3866C151.702 40.3866 150.484 40.1074 149.244 39.549C148.003 38.9906 146.873 38.2706 145.851 37.3889L142.175 41.8413C143.634 43.2226 145.29 44.2585 147.143 44.9492C148.996 45.6398 150.856 45.9851 152.723 45.9851ZM180.135 45.9851C181.827 45.9851 183.344 45.7427 184.687 45.2578C186.029 44.7729 187.16 44.1263 188.079 43.3181C188.998 42.5099 189.699 41.5695 190.18 40.4968C190.662 39.4241 190.902 38.2853 190.902 37.0803C190.902 35.0525 190.399 33.4214 189.392 32.1871C188.385 30.9527 187.007 29.9829 185.256 29.2776L181.579 27.7787C180.966 27.5142 180.397 27.2718 179.872 27.0514C179.347 26.8309 178.887 26.5958 178.493 26.346C178.099 26.0962 177.793 25.817 177.574 25.5084C177.355 25.1999 177.246 24.8251 177.246 24.3843C177.246 23.5614 177.574 22.9222 178.231 22.4667C178.887 22.0112 179.77 21.7834 180.879 21.7834C182.017 21.7834 183.053 21.9818 183.986 22.3785C184.92 22.7753 185.854 23.341 186.788 24.0757L190.071 19.976C188.845 18.7416 187.423 17.8012 185.803 17.1546C184.183 16.5081 182.542 16.1848 180.879 16.1848C179.39 16.1848 178.026 16.4052 176.786 16.8461C175.546 17.2869 174.473 17.8967 173.569 18.6755C172.664 19.4543 171.964 20.3654 171.468 21.4087C170.972 22.452 170.724 23.5614 170.724 24.737C170.724 25.795 170.884 26.7428 171.205 27.5804C171.526 28.4179 171.957 29.1527 172.496 29.7845C173.036 30.4164 173.649 30.9674 174.335 31.4376C175.021 31.9079 175.728 32.2899 176.458 32.5838L180.178 34.1708C180.791 34.4353 181.353 34.6778 181.864 34.8982C182.374 35.1186 182.812 35.3537 183.177 35.6035C183.541 35.8533 183.819 36.1399 184.008 36.4631C184.198 36.7864 184.293 37.1685 184.293 37.6093C184.293 38.4616 183.965 39.1375 183.308 39.6371C182.651 40.1368 181.652 40.3866 180.31 40.3866C179.113 40.3866 177.895 40.1074 176.655 39.549C175.415 38.9906 174.284 38.2706 173.262 37.3889L169.586 41.8413C171.045 43.2226 172.701 44.2585 174.554 44.9492C176.407 45.6398 178.267 45.9851 180.135 45.9851Z" fill="#6BC2BB"/>
<path d="M100.677 72.9129V66.5079H103.007C104.005 66.5079 104.945 66.3823 105.828 66.1311C106.71 65.8799 107.487 65.4935 108.159 64.9718C108.83 64.4501 109.362 63.7835 109.756 62.972C110.149 62.1605 110.346 61.2041 110.346 60.1028C110.346 58.9629 110.149 58.0016 109.756 57.2191C109.362 56.4366 108.83 55.8086 108.159 55.3353C107.487 54.8619 106.7 54.5238 105.799 54.3209C104.897 54.118 103.928 54.0166 102.892 54.0166H96.4463V72.9129H100.677ZM102.748 63.117H100.677V57.4075H102.633C103.784 57.4075 104.667 57.6104 105.281 58.0161C105.895 58.4219 106.202 59.1174 106.202 60.1028C106.202 62.1122 105.051 63.117 102.748 63.117ZM119.828 73.2607C120.307 73.2607 120.724 73.2269 121.079 73.1593C121.434 73.0916 121.727 73.0095 121.957 72.9129L121.439 69.7539C121.324 69.7925 121.233 69.8118 121.166 69.8118H120.921C120.748 69.8118 120.581 69.7249 120.417 69.551C120.254 69.3771 120.173 69.068 120.173 68.6236V52.5964H115.943V68.4497C115.943 69.1839 116.01 69.8456 116.144 70.4349C116.278 71.0242 116.494 71.5266 116.792 71.942C117.089 72.3574 117.487 72.6811 117.986 72.9129C118.485 73.1448 119.099 73.2607 119.828 73.2607ZM130.461 73.2607C131.266 73.2607 132.005 73.0916 132.676 72.7535C133.348 72.4154 133.991 71.9758 134.605 71.4348H134.72L135.007 72.9129H138.461V64.682C138.461 62.46 137.976 60.8225 137.007 59.7695C136.039 58.7165 134.633 58.19 132.792 58.19C131.66 58.19 130.59 58.3639 129.583 58.7117C128.576 59.0595 127.612 59.5135 126.691 60.0738L128.216 62.8851C128.907 62.4794 129.554 62.1605 130.158 61.9287C130.763 61.6968 131.372 61.5809 131.986 61.5809C132.772 61.5809 133.334 61.7693 133.669 62.1461C134.005 62.5228 134.192 63.03 134.23 63.6676C131.41 63.9574 129.367 64.5274 128.101 65.3776C126.835 66.2277 126.202 67.4063 126.202 68.9134C126.202 69.5317 126.302 70.1017 126.504 70.6233C126.705 71.145 126.988 71.6039 127.353 72C127.717 72.3961 128.163 72.7052 128.691 72.9274C129.218 73.1496 129.808 73.2607 130.461 73.2607ZM131.899 69.9567C131.401 69.9567 131.003 69.8456 130.705 69.6234C130.408 69.4013 130.259 69.0583 130.259 68.5946C130.259 68.0343 130.547 67.5512 131.122 67.1455C131.698 66.7397 132.734 66.4306 134.23 66.218V68.7395C133.847 69.1259 133.482 69.4254 133.137 69.6379C132.792 69.8505 132.379 69.9567 131.899 69.9567ZM149.698 73.2607C150.389 73.2607 150.993 73.2027 151.511 73.0868C152.029 72.9709 152.48 72.855 152.863 72.739L152.202 69.6379C152.01 69.7152 151.794 69.7828 151.554 69.8408C151.314 69.8988 151.079 69.9278 150.849 69.9278C150.293 69.9278 149.847 69.749 149.511 69.3916C149.175 69.0341 149.007 68.4497 149.007 67.6382V61.8707H152.432V58.5378H149.007V54.7121H145.497L145.007 58.5378L142.82 58.7117V61.8707H144.777V67.6961C144.777 68.527 144.868 69.2853 145.051 69.9712C145.233 70.6571 145.521 71.2416 145.914 71.7246C146.307 72.2077 146.816 72.5845 147.439 72.855C148.063 73.1255 148.816 73.2607 149.698 73.2607ZM162.863 72.9129V61.8707H165.425V58.5378H162.863V57.6683C162.863 56.9341 163.007 56.4076 163.295 56.0888C163.583 55.77 163.986 55.6106 164.504 55.6106C164.945 55.6106 165.434 55.7072 165.971 55.9004L166.748 52.7703C166.422 52.6544 166.015 52.5385 165.525 52.4226C165.036 52.3066 164.494 52.2487 163.899 52.2487C162.94 52.2487 162.125 52.3936 161.453 52.6834C160.782 52.9732 160.235 53.3693 159.813 53.8717C159.391 54.374 159.089 54.9633 158.907 55.6396C158.724 56.3158 158.633 57.0307 158.633 57.7842V58.5668L156.734 58.7117V61.8707H158.633V72.9129H162.863ZM176.259 73.2607C177.161 73.2607 178.029 73.0916 178.863 72.7535C179.698 72.4154 180.437 71.9275 181.079 71.2899C181.722 70.6523 182.235 69.865 182.619 68.9279C183.003 67.9908 183.194 66.9233 183.194 65.7253C183.194 64.5274 183.003 63.4599 182.619 62.5228C182.235 61.5857 181.722 60.7984 181.079 60.1608C180.437 59.5232 179.698 59.0353 178.863 58.6972C178.029 58.3591 177.161 58.19 176.259 58.19C175.357 58.19 174.485 58.3591 173.64 58.6972C172.796 59.0353 172.053 59.5232 171.41 60.1608C170.767 60.7984 170.254 61.5857 169.871 62.5228C169.487 63.4599 169.295 64.5274 169.295 65.7253C169.295 66.9233 169.487 67.9908 169.871 68.9279C170.254 69.865 170.767 70.6523 171.41 71.2899C172.053 71.9275 172.796 72.4154 173.64 72.7535C174.485 73.0916 175.357 73.2607 176.259 73.2607ZM176.259 69.8118C175.377 69.8118 174.72 69.4447 174.288 68.7105C173.856 67.9763 173.64 66.9812 173.64 65.7253C173.64 64.4695 173.856 63.4744 174.288 62.7402C174.72 62.006 175.377 61.6389 176.259 61.6389C177.122 61.6389 177.775 62.006 178.216 62.7402C178.657 63.4744 178.878 64.4695 178.878 65.7253C178.878 66.9812 178.657 67.9763 178.216 68.7105C177.775 69.4447 177.122 69.8118 176.259 69.8118ZM193.022 72.9129V64.5661C193.405 63.5807 193.89 62.8948 194.475 62.5083C195.06 62.1219 195.621 61.9287 196.158 61.9287C196.465 61.9287 196.734 61.948 196.964 61.9867C197.194 62.0253 197.444 62.0833 197.712 62.1605L198.403 58.4798C198.192 58.3832 197.957 58.3108 197.698 58.2624C197.439 58.2141 197.108 58.19 196.705 58.19C195.976 58.19 195.247 58.4219 194.518 58.8856C193.789 59.3493 193.166 60.0738 192.648 61.0592H192.532L192.245 58.5378H188.791V72.9129H193.022ZM207.166 72.9129V63.2039C208.048 62.2765 208.854 61.8128 209.583 61.8128C210.197 61.8128 210.643 62.006 210.921 62.3924C211.199 62.7788 211.338 63.4937 211.338 64.5371V72.9129H215.568V63.2039C216.489 62.2765 217.305 61.8128 218.014 61.8128C218.628 61.8128 219.074 62.006 219.353 62.3924C219.631 62.7788 219.77 63.4937 219.77 64.5371V72.9129H224V63.9864C224 62.1895 223.64 60.7742 222.921 59.7405C222.201 58.7068 221.074 58.19 219.54 58.19C218.58 58.19 217.751 58.4267 217.05 58.9001C216.35 59.3734 215.684 59.9386 215.05 60.5955C214.686 59.8227 214.192 59.2285 213.568 58.8131C212.945 58.3977 212.125 58.19 211.108 58.19C210.168 58.19 209.362 58.4074 208.691 58.8421C208.019 59.2768 207.386 59.7937 206.791 60.3926H206.676L206.389 58.5378H202.935V72.9129H207.166Z" fill="#6BC2BB"/>
<path opacity="0.35" fill-rule="evenodd" clip-rule="evenodd" d="M40.7778 36.7276L70.4102 58.7901C72.2263 60.1423 72.6102 62.7211 71.2676 64.5502C71.026 64.8793 70.737 65.1703 70.4102 65.4137L40.7778 87.4762C38.0601 89.4996 34.3518 89.5087 31.6243 87.4986L1.67466 65.4255C-0.147944 64.0823 -0.54423 61.5053 0.789529 59.6697C1.0374 59.3286 1.33594 59.0279 1.67466 58.7782L31.6243 36.7052C34.3518 34.6951 38.0601 34.7041 40.7778 36.7276Z" fill="#60AEA8"/>
<path opacity="0.7" fill-rule="evenodd" clip-rule="evenodd" d="M40.7778 19.0843L70.4102 41.1468C72.2263 42.499 72.6102 45.0779 71.2676 46.9069C71.026 47.2361 70.737 47.5271 70.4102 47.7704L40.7778 69.8329C38.0601 71.8564 34.3518 71.8655 31.6243 69.8553L1.67466 47.7823C-0.147944 46.439 -0.54423 43.862 0.789529 42.0264C1.0374 41.6853 1.33594 41.3846 1.67466 41.135L31.6243 19.0619C34.3518 17.0518 38.0601 17.0609 40.7778 19.0843Z" fill="#60AEA8"/>
<path fill-rule="evenodd" clip-rule="evenodd" d="M40.7817 1.52381L70.4142 23.5863C72.2303 24.9385 72.6141 27.5174 71.2715 29.3464C71.0299 29.6756 70.741 29.9666 70.4142 30.2099L40.7817 52.2724C38.064 54.2959 34.3557 54.3049 31.6283 52.2948L1.67856 30.2218C-0.144038 28.8785 -0.540324 26.3015 0.793436 24.4659C1.04131 24.1248 1.33985 23.8241 1.67856 23.5745L31.6283 1.50143C34.3557 -0.508711 38.064 -0.499644 40.7817 1.52381Z" fill="#DB4D45"/>
<path d="M49.5298 19.4207C45.8933 16.9116 40.8026 16.8471 37.4647 19.6356L36.1575 20.7263L34.8502 19.6356C31.519 16.8471 26.21 17.0835 22.5735 19.5927C18.4062 22.4725 18.0813 26.9535 21.8107 30.0751L36.157 40.6247L50.4976 30.0751C54.2336 26.9535 53.6971 22.3006 49.5298 19.4207Z" fill="white"/>
</svg>
